<?xml version="1.0" standalone="no"?>
<!DOCTYPE svg PUBLIC "-//W3C//DTD SVG 1.1//EN" "http://www.w3.org/Graphics/SVG/1.1/DTD/svg11.dtd" >
<svg xmlns="http://www.w3.org/2000/svg">
<metadata></metadata>
<defs>
<font id="dinlightalternate" horiz-adv-x="1052" >
<font-face units-per-em="2048" ascent="1638" descent="-410" />
<missing-glyph horiz-adv-x="522" />
<glyph horiz-adv-x="0" />
<glyph unicode="&#xd;" horiz-adv-x="522" />
<glyph unicode=" "  horiz-adv-x="522" />
<glyph unicode="&#x09;" horiz-adv-x="522" />
<glyph unicode="&#xa0;" horiz-adv-x="522" />
<glyph unicode="!" horiz-adv-x="622" d="M260 76q0 35 24.5 58.5t57.5 23.5q35 0 58.5 -23.5t23.5 -58.5q0 -33 -23.5 -57.5t-58.5 -24.5q-33 0 -57.5 24.5t-24.5 57.5zM285 1458h114l-12 -1065h-90z" />
<glyph unicode="&#x22;" horiz-adv-x="835" d="M195 1139v319h129v-319h-129zM512 1139v319h129v-319h-129z" />
<glyph unicode="#" horiz-adv-x="1308" d="M172 492v90h211l51 313h-203v92h215l74 471h107l-76 -471h358l74 471h102l-73 -471h192v-92h-205l-51 -313h197v-90h-211l-78 -492h-104l79 492h-360l-76 -492h-104l78 492h-197zM485 582h359l51 313h-358z" />
<glyph unicode="$" horiz-adv-x="1202" d="M104 180l78 78q158 -158 361 -170v604l-33 4q-158 20 -260 107q-115 96 -115 268t109.5 278.5t298.5 118.5v183h92v-183q207 -10 373 -155l-72 -72q-135 121 -301 133v-594l59 -10q182 -31 260 -96q127 -105 127 -283q0 -176 -119.5 -283.5t-326.5 -117.5v-223h-92v221 q-256 10 -439 192zM244 1075q0 -127 75 -190q85 -72 224 -90v579q-141 -10 -220 -90t-79 -209zM635 88q156 10 246 88t90 211q0 135 -80 205q-51 45 -121 61q-18 6 -135 23v-588z" />
<glyph unicode="%" horiz-adv-x="1695" d="M141 979v219q0 121 76 198t195 77t193.5 -77t74.5 -198v-219q0 -121 -75 -196.5t-193 -75.5q-119 0 -195 75.5t-76 196.5zM231 983q0 -199 181 -199q178 0 178 199v211q0 201 -178 201q-180 0 -181 -201v-211zM463 0l680 1458h92l-680 -1458h-92zM1016 260v219 q0 121 75.5 198t194.5 77t193.5 -77t74.5 -198v-219q0 -121 -74.5 -197.5t-193.5 -76.5t-194.5 76.5t-75.5 197.5zM1106 264q0 -201 180 -201q178 0 178 201v211q0 201 -178 201q-180 0 -180 -201v-211z" />
<glyph unicode="&#x26;" horiz-adv-x="1527" d="M172 403q0 154 102 271q61 70 232 182q-162 193 -162 324q0 123 86 206.5t211 83.5t211 -85t86 -207q0 -147 -168 -263q-37 -25 -108 -73l417 -506q49 76 67.5 150.5t18.5 211.5h109q0 -289 -127 -444l209 -254h-142l-141 172q-190 -184 -448 -184q-201 0 -327 114.5 t-126 300.5zM283 410q0 -143 94 -233.5t246 -90.5q207 0 389 162l-443 534q-150 -102 -194 -151q-92 -96 -92 -221zM455 1184q0 -94 143 -269q25 16 84 58q147 101 147 205q0 82 -54 138t-134 56t-133 -53t-53 -135z" />
<glyph unicode="'" horiz-adv-x="518" d="M195 1139v319h129v-319h-129z" />
<glyph unicode="(" horiz-adv-x="581" d="M199 162v1134q0 115 39 191q31 59 135 164l71 -72l-63 -63q-31 -37 -47 -70q-31 -63 -31 -162v-1110q0 -98 31 -162q20 -43 110 -133l-71 -72q-61 61 -80 82q-33 39 -55 82q-39 76 -39 191z" />
<glyph unicode=")" horiz-adv-x="581" d="M133 -117l64 64q31 37 47 69q29 59 28 158v1110q0 98 -28 158q-20 43 -111 133l76 76q59 -59 78 -82q35 -39 57 -82q39 -74 39 -191v-1134q0 -117 -39 -191q-33 -61 -135 -164z" />
<glyph unicode="*" horiz-adv-x="956" d="M147 975l252 139l-252 139l46 78l245 -149l-6 288h92l-6 -288l246 149l45 -78l-252 -139l252 -139l-45 -78l-246 150l6 -289h-92l6 289l-245 -150z" />
<glyph unicode="+" d="M109 492v96h370v368h96v-368h369v-96h-369v-371h-96v371h-370z" />
<glyph unicode="," horiz-adv-x="528" d="M195 139h139v-278l-139 -140v418z" />
<glyph unicode="-" horiz-adv-x="872" d="M168 492v96h537v-96h-537z" />
<glyph unicode="." horiz-adv-x="540" d="M176 88q0 39 27.5 66.5t66.5 27.5t67 -27.5t28 -66.5t-28 -66.5t-67 -27.5t-66.5 27.5t-27.5 66.5z" />
<glyph unicode="/" horiz-adv-x="692" d="M0 -152l584 1762h108l-583 -1762h-109z" />
<glyph unicode="0" d="M143 377v469q0 170 107.5 279.5t275.5 109.5t275.5 -109.5t107.5 -279.5v-469q0 -170 -107.5 -279.5t-275.5 -109.5t-275.5 109.5t-107.5 279.5zM248 387q0 -135 71 -217q74 -90 207 -90t207 90q72 82 72 217v449q0 135 -73 221t-206 86t-205.5 -86t-72.5 -221v-449z" />
<glyph unicode="1" horiz-adv-x="716" d="M102 870v125l265 228h104v-1223h-104v1104z" />
<glyph unicode="2" horiz-adv-x="1005" d="M82 0v92l528 529q137 137 138 292q0 113 -79 192t-200 79q-117 0 -198 -77t-81 -196h-104q0 154 108.5 259.5t274.5 105.5q172 0 277.5 -104.5t105.5 -258.5q0 -186 -164 -350l-471 -471h676v-92h-811z" />
<glyph unicode="3" horiz-adv-x="1042" d="M82 117h104q10 -139 105 -213q82 -63 207 -64q133 0 221 84t88 228q0 311 -318 311h-24v92h24q289 0 289 293q0 139 -80 217t-202 78q-127 0 -202 -71t-89 -195h-105q14 168 127 264q106 94 269 94q172 0 279.5 -106.5t107.5 -280.5q0 -244 -207 -332q235 -79 235 -364 q0 -188 -116.5 -296t-296.5 -108q-178 0 -287 90q-119 96 -129 279z" />
<glyph unicode="4" horiz-adv-x="1071" d="M72 61v93l557 1126h108l-557 -1126h510v462h105v-462h194v-93h-194v-313h-105v313h-618z" />
<glyph unicode="5" horiz-adv-x="1034" d="M123 86h104q33 -244 275 -244q127 0 200 74q88 88 89 326q0 389 -273 389q-217 0 -264 -154h-92v746h700v-93h-608v-516q94 109 276 109q158 0 246 -88q119 -119 119 -393t-113 -387q-104 -104 -280 -105q-352 0 -379 336z" />
<glyph unicode="6" horiz-adv-x="1062" d="M113 432q0 166 94 332l414 727h108l-375 -643q88 43 187 43q190 0 303 -129q106 -120 106 -313q0 -199 -108 -326q-117 -135 -310 -135q-197 0 -308 122.5t-111 321.5zM217 438q0 -164 85 -263t228 -99t229.5 99t86.5 263q0 154 -80 254q-86 111 -236 111 q-143 0 -228 -99.5t-85 -265.5z" />
<glyph unicode="7" horiz-adv-x="989" d="M92 901v322h826v-93l-615 -1386h-108l614 1386h-612v-229h-105z" />
<glyph unicode="8" horiz-adv-x="1077" d="M123 393q0 242 231 365q-201 109 -200 332q0 164 108.5 272t276.5 108t276.5 -108.5t108.5 -271.5q0 -225 -199 -332q229 -121 229 -365q0 -174 -118.5 -289.5t-296.5 -115.5t-297 115.5t-119 289.5zM227 393q0 -133 89.5 -223t222.5 -90t222 90t89 223t-90 224.5 t-221 91.5t-221.5 -91.5t-90.5 -224.5zM258 1090q0 -127 78 -208t203 -81t202.5 81t77.5 208t-77.5 207.5t-202.5 80.5t-203 -80.5t-78 -207.5z" />
<glyph unicode="9" horiz-adv-x="1062" d="M113 774q0 199 108 326q117 135 309 135q197 0 308.5 -122.5t111.5 -321.5q0 -166 -94 -332l-414 -727h-108l375 643q-88 -43 -187 -43q-190 0 -303 129q-106 121 -106 313zM217 784q0 -154 80 -254q86 -111 235 -110q143 0 228.5 99t85.5 265q0 164 -85 263.5t-229 99.5 q-143 0 -229 -99.5t-86 -263.5z" />
<glyph unicode=":" horiz-adv-x="598" d="M233 88q0 39 28 66.5t67 27.5t66.5 -27.5t27.5 -66.5t-27.5 -66.5t-66.5 -27.5t-67 27.5t-28 66.5zM233 702q0 39 28 67t67 28t66.5 -28t27.5 -67t-27.5 -66.5t-66.5 -27.5t-67 28t-28 66z" />
<glyph unicode=";" horiz-adv-x="598" d="M233 702q0 39 28 67t67 28t66.5 -28t27.5 -67t-27.5 -66.5t-66.5 -27.5t-67 28t-28 66zM258 139h139v-278l-139 -140v418z" />
<glyph unicode="&#x3c;" horiz-adv-x="2103" d="M225 432v141l776 -776v1678h103v-1678l776 776v-141l-827 -827z" />
<glyph unicode="=" d="M109 334v96h835v-96h-835zM109 647v96h835v-96h-835z" />
<glyph unicode="&#x3e;" horiz-adv-x="2103" d="M225 506v141l828 828l827 -828v-141l-776 776v-1677h-103v1677z" />
<glyph unicode="?" horiz-adv-x="999" d="M164 1110q0 150 103.5 255t262.5 105q156 0 261.5 -103t105.5 -257q0 -111 -90 -244l-174 -256q-37 -53 -37 -123v-96h-104v92q0 96 59 185l172 254q70 102 70 188q0 115 -75 191.5t-188 76.5q-117 0 -189.5 -78.5t-72.5 -189.5h-104zM461 76q0 35 24.5 58.5t57.5 23.5 q35 0 58.5 -23.5t23.5 -58.5q0 -33 -23.5 -57.5t-58.5 -24.5q-33 0 -57.5 24.5t-24.5 57.5z" />
<glyph unicode="@" horiz-adv-x="1427" d="M158 322v716q0 188 107.5 304t293.5 116h307q184 0 294 -116.5t110 -303.5v-1038h-105v121q-98 -135 -284 -135q-184 0 -285 133q-88 117 -88 375q0 256 80 370q96 137 291 137q180 0 286 -139v182q0 158 -84 244t-233 86h-270q-145 0 -230.5 -85t-85.5 -245v-722 q0 -104 25.5 -156.5t101.5 -108.5l-72 -71q-96 66 -127.5 133t-31.5 203zM612 494q0 -188 47 -283q63 -133 230 -133q166 0 231 133q45 95 45 283t-45 282q-66 133 -231 133q-166 0 -230 -133q-47 -94 -47 -282z" />
<glyph unicode="A" horiz-adv-x="1232" d="M31 0l536 1458h99l536 -1458h-119l-127 354h-680l-126 -354h-119zM311 453h611l-306 858z" />
<glyph unicode="B" horiz-adv-x="1374" d="M225 0v1458h537q186 0 304 -102.5t118 -278.5q0 -115 -61.5 -204t-166.5 -123q119 -39 184.5 -132.5t65.5 -220.5q0 -190 -114.5 -293.5t-313.5 -103.5h-553zM336 98h430q150 0 240 80t90 219t-90.5 219t-239.5 80h-430v-598zM336 795h414q143 0 227 65q96 74 96 217 t-96 217q-84 66 -227 66h-414v-565z" />
<glyph unicode="C" horiz-adv-x="1220" d="M168 729q0 276 18 371q25 129 117 221q149 149 362 149h3q219 0 411 -182l-73 -74q-84 82 -150 117q-82 41 -188 41q-166 0 -277 -112q-74 -76 -96 -187q-16 -92 -16 -344t16 -344q23 -111 96 -186q111 -113 277 -113q106 0 188 43q66 33 150 115l73 -74 q-193 -182 -411 -182q-215 0 -365 149q-92 92 -117 221q-18 94 -18 371z" />
<glyph unicode="D" horiz-adv-x="1388" d="M225 0v1458h490q231 0 364 -133q96 -96 125 -268q17 -92 17 -307q0 -225 -17 -328q-29 -193 -125 -289q-133 -133 -364 -133h-490zM336 98h352q203 0 313 113q76 78 99 254q10 84 10 285q0 190 -10 264q-23 156 -99 233q-111 113 -313 113h-352v-1262z" />
<glyph unicode="E" horiz-adv-x="1224" d="M225 0v1458h885v-98h-774v-576h659v-98h-659v-588h774v-98h-885z" />
<glyph unicode="F" horiz-adv-x="1179" d="M225 0v1458h885v-98h-774v-600h659v-98h-659v-662h-111z" />
<glyph unicode="G" horiz-adv-x="1327" d="M168 729q0 276 18 371q25 129 117 221q149 149 362 149h3q133 0 239 -53q90 -45 195 -149l-74 -74q-94 94 -160 131q-86 47 -200 47q-164 0 -277 -112q-74 -74 -96 -187q-16 -92 -16 -344t16 -344q23 -111 96 -186q111 -113 277 -113q186 0 303 141q88 106 88 289v131 h-391v98h501v-237q0 -223 -118 -352q-154 -168 -383 -168q-215 0 -365 149q-92 92 -117 221q-18 94 -18 371z" />
<glyph unicode="H" horiz-adv-x="1431" d="M225 0v1458h111v-674h760v674h110v-1458h-110v686h-760v-686h-111z" />
<glyph unicode="I" horiz-adv-x="561" d="M225 0v1458h111v-1458h-111z" />
<glyph unicode="J" horiz-adv-x="1019" d="M61 113l76 75q102 -102 244 -102q156 0 240 95t84 272v1005h110v-1028q0 -201 -118.5 -321.5t-315.5 -120.5q-195 0 -320 125z" />
<glyph unicode="K" horiz-adv-x="1320" d="M225 0v1458h111v-911l739 911h133l-450 -557l526 -901h-131l-469 817l-348 -422v-395h-111z" />
<glyph unicode="L" horiz-adv-x="1171" d="M225 0v1458h111v-1360h774v-98h-885z" />
<glyph unicode="M" horiz-adv-x="1675" d="M225 0v1458h111l508 -1124l495 1124h111v-1458h-111v1202l-442 -997h-111l-450 997v-1202h-111z" />
<glyph unicode="N" horiz-adv-x="1513" d="M225 0v1458h111l842 -1263v1263h110v-1458h-110l-842 1268v-1268h-111z" />
<glyph unicode="O" horiz-adv-x="1335" d="M168 729q0 276 18 371q25 129 117 221q149 149 362 149h3q215 0 364 -149q92 -92 117 -221q18 -95 18 -371t-18 -371q-25 -129 -117 -221q-149 -149 -361 -149h-3q-215 0 -365 149q-92 92 -117 221q-18 94 -18 371zM279 729q0 -252 16 -344q23 -113 96 -186 q113 -113 277 -113t276 113q74 74 96 186q17 92 17 344t-17 344q-23 113 -96 187q-112 112 -273 112h-3q-164 0 -277 -112q-74 -74 -96 -187q-16 -92 -16 -344z" />
<glyph unicode="P" horiz-adv-x="1292" d="M225 0v1458h535q195 0 317.5 -112.5t122.5 -307.5t-123 -307.5t-317 -112.5h-424v-618h-111zM336 717h412q156 0 249 80.5t93 240.5t-97 244q-90 78 -245 78h-412v-643z" />
<glyph unicode="Q" horiz-adv-x="1333" d="M168 729q0 276 18 371q25 129 117 221q149 149 362 149h3q215 0 364 -149q92 -92 117 -221q18 -94 18 -371q0 -256 -14 -346q-18 -127 -90 -211l172 -172l-74 -74l-172 172q-138 -110 -318 -110h-3q-215 0 -365 149q-92 92 -117 221q-18 94 -18 371zM279 729 q0 -252 16 -344q23 -113 96 -186q113 -113 277 -113q139 0 247 86l-204 205l73 74l203 -203q45 66 60 176q10 88 10 305q0 252 -17 344q-23 113 -96 187q-112 112 -273 112h-3q-164 0 -277 -112q-74 -74 -96 -187q-16 -92 -16 -344z" />
<glyph unicode="R" horiz-adv-x="1345" d="M225 0v1458h555q184 0 299 -100q119 -106 119 -291q0 -160 -90 -263.5t-246 -129.5l352 -674h-129l-348 672h-401v-672h-111zM336 770h430q145 0 233 75t88 220t-90 223q-86 72 -231 72h-430v-590z" />
<glyph unicode="S" horiz-adv-x="1202" d="M104 180l78 78q96 -96 188.5 -134t225.5 -38q174 0 274.5 80t100.5 221q0 135 -80 205q-63 55 -211 78l-170 26q-375 59 -375 375q0 182 122 290.5t331 108.5q238 0 420 -157l-72 -72q-152 135 -354 135q-158 0 -248 -81t-90 -220q0 -127 75 -190q82 -70 218 -90l157 -25 q176 -27 260 -96q127 -105 127 -283q0 -184 -132 -293.5t-359 -109.5q-293 0 -486 192z" />
<glyph unicode="T" horiz-adv-x="1103" d="M61 1360v98h981v-98h-436v-1360h-110v1360h-435z" />
<glyph unicode="U" horiz-adv-x="1409" d="M205 473v985h110v-971q0 -180 106.5 -290.5t283.5 -110.5q176 0 282.5 110.5t106.5 290.5v971h110v-985q0 -213 -140 -349t-359 -136t-359.5 136t-140.5 349z" />
<glyph unicode="V" horiz-adv-x="1093" d="M20 1458h117l410 -1263l409 1263h117l-479 -1458h-94z" />
<glyph unicode="W" horiz-adv-x="1724" d="M41 1458h117l307 -1268l340 1268h115l340 -1268l307 1268h116l-364 -1458h-113l-344 1270l-344 -1270h-112z" />
<glyph unicode="X" horiz-adv-x="1089" d="M37 0l446 748l-417 710h129l348 -612l350 612h127l-418 -710l451 -748h-129l-381 649l-381 -649h-125z" />
<glyph unicode="Y" horiz-adv-x="1011" d="M20 1458h119l371 -737l362 737h119l-430 -854v-604h-110v604z" />
<glyph unicode="Z" horiz-adv-x="1144" d="M129 0v117l768 1243h-737v98h856v-98l-774 -1262h774v-98h-887z" />
<glyph unicode="[" horiz-adv-x="593" d="M199 -152v1762h303v-92h-199v-1577h199v-93h-303z" />
<glyph unicode="\" horiz-adv-x="692" d="M0 1610h109l583 -1762h-108z" />
<glyph unicode="]" horiz-adv-x="593" d="M92 -66h205v1590h-205v86h303v-1762h-303v86z" />
<glyph unicode="^" d="M156 864l323 606h94l324 -606h-104l-267 496l-266 -496h-104z" />
<glyph unicode="_" d="M0 -250h1053v-78h-1053v78z" />
<glyph unicode="`" horiz-adv-x="1024" d="M272 1509h138l198 -301h-119z" />
<glyph unicode="a" horiz-adv-x="1073" d="M115 270q0 135 91 210t253 75h319v111q0 241 -276 241h-2q-186 0 -273 -125l-75 66q108 151 345 151h3q383 0 383 -323v-676h-105v98q-110 -110 -298 -110h-3q-205 0 -291 90q-72 74 -71 192zM219 272q0 -192 255 -192h3q168 0 246 76q55 53 55 188v127h-307 q-252 0 -252 -199z" />
<glyph unicode="b" horiz-adv-x="1105" d="M199 0v1458h104v-598q104 139 293 139q156 0 242 -86q127 -126 127 -419t-127 -420q-86 -86 -242 -86q-188 0 -293 139v-127h-104zM303 494q0 -188 49 -283q66 -131 230 -131t229 131q49 95 49 283t-49 284q-66 129 -229 129q-164 0 -230 -129q-49 -96 -49 -284z" />
<glyph unicode="c" horiz-adv-x="1009" d="M141 494q0 236 117 370.5t317 134.5q102 0 175 -32.5t151 -118.5l-72 -66q-111 125 -254 125q-172 0 -262 -131q-67 -97 -67 -277v-5q0 -184 67 -283q90 -131 262 -131q143 0 254 125l72 -66q-78 -86 -150.5 -118.5t-175.5 -32.5q-201 0 -317.5 135t-116.5 371z" />
<glyph unicode="d" horiz-adv-x="1105" d="M141 494q0 293 127 419q86 86 242 86q188 0 293 -139v598h104v-1458h-104v127q-104 -139 -293 -139q-156 0 -242 86q-127 127 -127 420zM246 494q0 -188 49 -283q66 -131 229 -131q164 0 230 131q49 95 49 283t-49 284q-66 129 -230 129t-229 -129q-49 -96 -49 -284z" />
<glyph unicode="e" horiz-adv-x="1071" d="M141 494q0 238 104.5 371.5t291.5 133.5q184 0 289.5 -128t105.5 -353v-47h-686q0 -389 321 -389q154 0 273 119l78 -62q-151 -151 -354 -151h-3q-420 0 -420 506zM246 555h581q-4 115 -34.5 188.5t-100 118.5t-155.5 45t-156 -45t-100.5 -118.5t-34.5 -188.5z" />
<glyph unicode="f" horiz-adv-x="622" d="M94 909v78h135v213q0 117 62.5 187.5t175.5 70.5h90v-92h-72q-152 0 -151 -164v-215h223v-78h-223v-909h-105v909h-135z" />
<glyph unicode="g" horiz-adv-x="1105" d="M141 494q0 293 127 419q86 86 242 86q188 0 293 -139v127h104v-1042q0 -190 -107.5 -309t-295.5 -119q-106 0 -175 28.5t-151 102.5l70 69q66 -59 110 -79q59 -29 146 -29q150 0 227 98q72 90 72 244v176q-104 -139 -293 -139q-156 0 -242 86q-127 127 -127 420zM246 494 q0 -188 49 -283q66 -131 229 -131q164 0 230 131q49 95 49 283t-49 284q-66 129 -230 129t-229 -129q-49 -96 -49 -284z" />
<glyph unicode="h" horiz-adv-x="1144" d="M199 0v1458h104v-588q111 129 291 129q168 0 266 -99t98 -269v-631h-104v612q0 295 -272 295q-131 0 -205 -77.5t-74 -217.5v-612h-104z" />
<glyph unicode="i" horiz-adv-x="501" d="M174 1393q0 33 22.5 55t53.5 22q33 0 55.5 -22t22.5 -53q0 -33 -22.5 -55.5t-53.5 -22.5q-33 0 -55.5 22.5t-22.5 53.5zM199 0v987h104v-987h-104z" />
<glyph unicode="j" horiz-adv-x="501" d="M-25 -379h72q84 0 118 40t34 126v1200h104v-1202q0 -256 -237 -256h-91v92zM174 1393q0 33 22.5 55t53.5 22q33 0 55.5 -22t22.5 -53q0 -33 -22.5 -55.5t-53.5 -22.5q-33 0 -55.5 22.5t-22.5 53.5z" />
<glyph unicode="k" horiz-adv-x="1079" d="M199 0v1458h104v-1028l490 557h133l-326 -369l397 -618h-129l-340 543l-225 -260v-283h-104z" />
<glyph unicode="l" horiz-adv-x="587" d="M195 256v1202h104v-1200q0 -86 34 -126t118 -40h71v-92h-90q-238 0 -237 256z" />
<glyph unicode="m" horiz-adv-x="1798" d="M199 0v987h104v-117q111 129 293 129q225 0 317 -180q115 180 336 180q168 0 265.5 -99t97.5 -269v-631h-103v612q0 295 -272 295q-127 0 -203 -74.5t-76 -201.5v-631h-104v612q0 295 -272 295q-131 0 -205 -77.5t-74 -217.5v-612h-104z" />
<glyph unicode="n" horiz-adv-x="1144" d="M199 0v987h104v-117q111 129 291 129q170 0 267 -99t97 -269v-631h-104v612q0 295 -272 295q-131 0 -205 -77.5t-74 -217.5v-612h-104z" />
<glyph unicode="o" horiz-adv-x="1077" d="M141 494q0 274 123 397q108 108 272 108h3q166 0 274 -108q123 -123 123 -397t-123 -398q-108 -108 -271 -108h-3q-166 0 -275 108q-123 123 -123 398zM246 494q0 -242 86 -328t207 -86t206.5 86t85.5 328t-86 327.5t-206 85.5q-121 0 -207 -86t-86 -327z" />
<glyph unicode="p" horiz-adv-x="1105" d="M199 -471v1458h104v-127q104 139 293 139q156 0 242 -86q127 -126 127 -419t-127 -420q-86 -86 -242 -86q-188 0 -293 139v-598h-104zM303 494q0 -188 49 -283q66 -131 230 -131t229 131q49 95 49 283t-49 284q-66 129 -229 129q-164 0 -230 -129q-49 -96 -49 -284z" />
<glyph unicode="q" horiz-adv-x="1105" d="M141 494q0 293 127 419q86 86 242 86q188 0 293 -139v127h104v-1458h-104v598q-104 -139 -293 -139q-156 0 -242 86q-127 127 -127 420zM246 494q0 -188 49 -283q66 -131 229 -131q164 0 230 131q49 95 49 283t-49 284q-66 129 -230 129t-229 -129q-49 -96 -49 -284z" />
<glyph unicode="r" horiz-adv-x="837" d="M199 0v987h104v-131q90 143 289 143q143 0 237 -94l-75 -76q-78 78 -187 78q-123 0 -193.5 -87t-70.5 -212v-608h-104z" />
<glyph unicode="s" horiz-adv-x="1011" d="M102 129l72 72q115 -121 324 -121q297 0 297 201q0 150 -189 165l-164 15q-297 27 -297 258q0 127 96.5 203.5t258.5 76.5q209 0 346 -104l-70 -70q-115 84 -276 84q-252 0 -252 -190q0 -147 201 -166l159 -14q139 -12 205 -62q84 -63 84 -196q0 -135 -106.5 -214 t-288.5 -79q-252 0 -400 141z" />
<glyph unicode="t" horiz-adv-x="665" d="M88 909v78h135v316h105v-316h223v-78h-223v-653q0 -164 151 -164h72v-92h-90q-113 0 -176 74q-61 68 -62 184v651h-135z" />
<glyph unicode="u" horiz-adv-x="1144" d="M186 356v631h105v-612q0 -295 272 -295q131 0 205 78t74 217v612h104v-987h-104v117q-111 -129 -291 -129q-170 0 -267.5 99t-97.5 269z" />
<glyph unicode="v" horiz-adv-x="880" d="M29 987h114l297 -864l297 864h115l-360 -987h-103z" />
<glyph unicode="w" horiz-adv-x="1458" d="M29 987h114l252 -864l283 864h102l283 -864l252 864h115l-316 -987h-106l-279 823l-278 -823h-107z" />
<glyph unicode="x" horiz-adv-x="942" d="M82 0l334 504l-320 483h127l250 -397l246 397h127l-320 -483l334 -504h-127l-260 416l-264 -416h-127z" />
<glyph unicode="y" horiz-adv-x="880" d="M29 987h114l297 -864l297 864h115l-459 -1255q-29 -80 -67 -115q-70 -63 -187 -63h-49v92h39q82 0 117 28.5t63 106.5l80 219z" />
<glyph unicode="z" horiz-adv-x="925" d="M111 0v98l594 797h-562v92h672v-98l-596 -797h596v-92h-704z" />
<glyph unicode="{" horiz-adv-x="647" d="M102 684v90h37q49 0 87 38t38 124v424q0 141 54.5 195.5t197.5 54.5h29v-92h-27q-96 0 -122.5 -29t-26.5 -131v-424q0 -141 -125 -205q125 -61 125 -205v-424q0 -129 53 -149q27 -10 96 -10h27v-93h-29q-143 0 -197.5 54.5t-54.5 195.5v424q0 86 -38 124t-87 38h-37z" />
<glyph unicode="|" horiz-adv-x="649" d="M272 -152v1762h105v-1762h-105z" />
<glyph unicode="}" horiz-adv-x="647" d="M102 -59h27q96 0 123 28.5t27 130.5v424q0 143 124 205q-125 63 -124 205v424q0 129 -54 149q-27 10 -96 11h-27v92h29q143 0 197.5 -54.5t54.5 -195.5v-424q0 -86 38 -124t87 -38h37v-90h-37q-49 0 -87 -38t-38 -124v-424q0 -141 -54.5 -195.5t-197.5 -54.5h-29v93z" />
<glyph unicode="~" d="M109 522q68 68 106 92q57 35 131 35q59 0 209 -63q113 -47 156 -47q78 0 170 92l63 -64q-68 -68 -106 -92q-57 -35 -131 -35q-59 0 -209 64q-113 47 -156 47q-78 0 -170 -92z" />
<glyph unicode="&#xa1;" horiz-adv-x="622" d="M199 911q0 35 24.5 58.5t57.5 23.5q35 0 58 -23.5t23 -58.5q0 -33 -23.5 -57.5t-57.5 -24.5q-33 0 -57.5 25t-24.5 57zM223 -471l13 1065h90l12 -1065h-115z" />
<glyph unicode="&#xa2;" horiz-adv-x="1019" d="M141 750q0 215 98.5 347t270.5 154v207h88v-203q170 -6 303 -151l-72 -66q-104 119 -231 125v-827q127 6 231 125l72 -66q-133 -145 -303 -151v-244h-88v248q-172 23 -270.5 155t-98.5 347zM246 750q0 -184 69.5 -284.5t194.5 -123.5v815q-125 -23 -194.5 -123 t-69.5 -284z" />
<glyph unicode="&#xa3;" horiz-adv-x="1099" d="M102 700v78h131v250q0 201 119 321.5t316 120.5q195 0 319 -124l-76 -76q-102 102 -243 102q-156 0 -240 -95t-84 -271v-228h324v-78h-324v-602h643v-98h-754v700h-131z" />
<glyph unicode="&#xa4;" horiz-adv-x="1345" d="M174 111l152 151q-98 121 -99 281q0 162 99 282l-152 150l66 65l151 -149q119 96 281 96t280 -96l154 149l65 -65l-151 -150q96 -119 96 -282q0 -162 -96 -281l151 -151l-65 -66l-154 152q-121 -98 -280 -99q-160 0 -281 99l-151 -152zM326 543q0 -143 101 -244.5 t245 -101.5q145 0 245.5 101.5t100.5 244.5q0 145 -100.5 245.5t-245.5 100.5q-143 0 -244.5 -100.5t-101.5 -245.5z" />
<glyph unicode="&#xa5;" horiz-adv-x="1009" d="M20 1458h117l371 -739l366 739h115l-334 -667h222v-78h-261l-55 -109v-108h316v-78h-316v-418h-110v418h-318v78h318v108l-56 109h-262v78h223z" />
<glyph unicode="&#xa6;" horiz-adv-x="671" d="M272 -152v717h105v-717h-105zM272 893v717h105v-717h-105z" />
<glyph unicode="&#xa7;" horiz-adv-x="1159" d="M199 506q0 246 225 348q-203 88 -203 289q0 150 107 241q100 86 252 86q150 0 249 -79q106 -86 115 -230h-108q-20 213 -256 213q-250 0 -250 -231q0 -168 186 -219l170 -47q127 -35 201 -136.5t74 -234.5q0 -246 -226 -348q96 -33 153.5 -112t57.5 -187 q0 -150 -102.5 -246t-263.5 -96q-156 0 -258 82q-109 88 -119 235h110q20 -219 267 -219q119 0 187.5 63.5t68.5 180.5q0 82 -52.5 143t-140.5 86l-170 47q-129 35 -201.5 136.5t-72.5 234.5zM309 506q0 -129 72 -207q78 -84 199 -84t198 84q72 78 72 207q0 135 -72 207 q-84 84 -198 84q-143 0 -224 -115q-47 -66 -47 -176z" />
<glyph unicode="&#xa8;" horiz-adv-x="1024" d="M223 1305q0 33 22.5 55t53.5 22q33 0 55.5 -22t22.5 -53q0 -33 -22.5 -55.5t-53.5 -22.5q-33 0 -55.5 22.5t-22.5 53.5zM647 1305q0 33 22.5 55t53.5 22q33 0 55.5 -22t22.5 -53q0 -33 -22.5 -55.5t-53.5 -22.5q-33 0 -55.5 22.5t-22.5 53.5z" />
<glyph unicode="&#xa9;" horiz-adv-x="1830" d="M174 729q0 307 217 524t524 217t524.5 -217t217.5 -524t-217 -524t-525 -217q-307 0 -524 217t-217 524zM272 729q0 -264 189.5 -457.5t453.5 -193.5t454 193.5t190 457.5t-189.5 457.5t-454.5 193.5q-264 0 -453.5 -193.5t-189.5 -457.5zM561 729q0 184 88 299 q96 125 275 125q145 0 268 -109l-62 -61q-98 86 -206 86q-270 0 -271 -340q0 -338 271 -338q113 0 206 84l62 -61q-119 -106 -268 -107q-178 0 -275 125q-88 113 -88 297z" />
<glyph unicode="&#xaa;" horiz-adv-x="915" d="M121 885q0 106 72.5 166.5t199.5 60.5h248v86q0 186 -215 186q-147 0 -213 -98l-66 55q88 123 279 123q303 0 303 -258v-536h-88v73q-86 -84 -233 -84q-160 0 -230 72q-57 59 -57 154zM209 887q0 -147 199 -148q133 0 192 58q41 38 41 147v96h-238q-195 0 -194 -153z" />
<glyph unicode="&#xab;" horiz-adv-x="1079" d="M86 543l401 401v-135l-266 -266l266 -267v-135zM510 543l401 401v-135l-266 -266l266 -267v-135z" />
<glyph unicode="&#xac;" d="M109 492v96h835v-369h-96v273h-739z" />
<glyph unicode="&#xad;" horiz-adv-x="872" d="M168 492v96h537v-96h-537z" />
<glyph unicode="&#xae;" horiz-adv-x="1830" d="M174 729q0 307 217 524t524 217t524.5 -217t217.5 -524t-217 -524t-525 -217q-307 0 -524 217t-217 524zM270 729q0 -266 190.5 -459.5t454.5 -193.5t455 193.5t191 459.5t-190.5 459.5t-455.5 193.5q-264 0 -454.5 -193.5t-190.5 -459.5zM682 319v822h262q102 0 178 -70 t76 -172q0 -176 -186 -229l207 -351h-107l-203 343h-135v-343h-92zM774 743h160q74 0 123 44t49 112t-49 113t-123 45h-160v-314z" />
<glyph unicode="&#xaf;" horiz-adv-x="1024" d="M209 1245v94h606v-94h-606z" />
<glyph unicode="&#xb0;" horiz-adv-x="937" d="M147 1151q0 133 94.5 227.5t227.5 94.5t227.5 -94.5t94.5 -227.5t-94.5 -227.5t-227.5 -94.5t-227.5 94.5t-94.5 227.5zM240 1151q0 -100 65.5 -168t163.5 -68t163.5 68t65.5 168t-66.5 167.5t-164.5 67.5t-162.5 -66.5t-64.5 -168.5z" />
<glyph unicode="&#xb1;" d="M109 0v96h835v-96h-835zM109 553v96h370v371h96v-371h369v-96h-369v-373h-96v373h-370z" />
<glyph unicode="&#xb2;" horiz-adv-x="688" d="M102 584v82l344 436q47 59 48 127q0 156 -150 155q-152 0 -151 -155h-91q0 106 67 171.5t175 65.5q109 0 175.5 -64.5t66.5 -172.5q0 -90 -70 -178l-305 -385h375v-82h-484z" />
<glyph unicode="&#xb3;" horiz-adv-x="720" d="M102 807h93q8 -152 167 -152q72 0 119 45t47 123q0 166 -172 166h-16v80h16q156 0 156 158q0 76 -43 116.5t-109 40.5q-141 0 -155 -143h-90q8 104 75.5 164.5t169.5 60.5q109 0 175.5 -65.5t66.5 -171.5q0 -141 -117 -195q133 -49 133 -211q0 -117 -71.5 -183.5 t-184.5 -66.5q-111 0 -180 58q-76 61 -80 176z" />
<glyph unicode="&#xb4;" horiz-adv-x="1024" d="M416 1208l198 301h138l-217 -301h-119z" />
<glyph unicode="&#xb6;" horiz-adv-x="1185" d="M92 1069q0 160 111 270q121 119 321 119h437v-1929h-105v1831h-252v-1831h-104v1151q-186 0 -301 123q-106 111 -107 266z" />
<glyph unicode="&#xb7;" horiz-adv-x="540" d="M176 532q0 39 27.5 67t66.5 28t67 -28t28 -67t-28 -66.5t-67 -27.5t-66.5 28t-27.5 66z" />
<glyph unicode="&#xb8;" horiz-adv-x="1024" d="M371 -451l147 308h113l-131 -308h-129z" />
<glyph unicode="&#xb9;" horiz-adv-x="509" d="M92 1212v105l164 141h90v-874h-90v774z" />
<glyph unicode="&#xba;" horiz-adv-x="925" d="M147 1063q0 217 99 315q86 86 217 86t217 -86q98 -98 98 -315t-98 -315q-86 -86 -217 -86t-217 86q-98 98 -99 315zM236 1063q0 -188 66.5 -255t160.5 -67t160.5 67t66.5 255t-66.5 254.5t-160.5 66.5t-160.5 -66.5t-66.5 -254.5z" />
<glyph unicode="&#xbb;" horiz-adv-x="1079" d="M168 141v135l266 267l-266 266v135l401 -401zM592 141v135l266 267l-266 266v135l401 -401z" />
<glyph unicode="&#xbc;" horiz-adv-x="1548" d="M92 1212v105l164 141h90v-874h-90v774zM344 0l680 1458h92l-680 -1458h-92zM922 137v82l315 655h96l-313 -655h250v246h90v-246h106v-82h-106v-137h-90v137h-348z" />
<glyph unicode="&#xbd;" horiz-adv-x="1564" d="M92 1212v105l164 141h90v-874h-90v774zM313 0l680 1458h92l-679 -1458h-93zM979 0v82l344 436q47 59 47 127q0 156 -149 156q-152 0 -152 -156h-90q0 106 66.5 172t175.5 66t175 -64.5t66 -173.5q0 -90 -69 -178l-306 -385h375v-82h-483z" />
<glyph unicode="&#xbe;" horiz-adv-x="1650" d="M102 807h93q8 -152 167 -152q72 0 119 45t47 123q0 166 -172 166h-16v80h16q156 0 156 158q0 76 -43 116.5t-109 40.5q-141 0 -155 -143h-90q8 104 75.5 164.5t169.5 60.5q109 0 175.5 -65.5t66.5 -171.5q0 -141 -117 -195q133 -49 133 -211q0 -117 -71.5 -183.5 t-184.5 -66.5q-111 0 -180 58q-76 61 -80 176zM467 0l680 1458h92l-680 -1458h-92zM1024 137v82l315 655h97l-314 -655h250v246h90v-246h107v-82h-107v-137h-90v137h-348z" />
<glyph unicode="&#xbf;" horiz-adv-x="999" d="M102 -123q0 111 91 244l174 256q37 53 36 123v96h105v-92q0 -96 -59 -185l-173 -253q-70 -102 -69 -189q0 -115 74.5 -191.5t187.5 -76.5q117 0 189.5 79t72.5 189h105q0 -150 -103.5 -255t-263.5 -105q-156 0 -261.5 103.5t-105.5 256.5zM375 911q0 35 24.5 58.5 t57.5 23.5q35 0 58.5 -23.5t23.5 -58.5q0 -33 -23.5 -57.5t-58.5 -24.5q-33 0 -57.5 25t-24.5 57z" />
<glyph unicode="&#xc0;" horiz-adv-x="1232" d="M31 0l536 1458h99l536 -1458h-119l-127 354h-680l-126 -354h-119zM311 453h611l-306 858zM376 1898h138l198 -301h-119z" />
<glyph unicode="&#xc1;" horiz-adv-x="1232" d="M31 0l536 1458h99l536 -1458h-119l-127 354h-680l-126 -354h-119zM311 453h611l-306 858zM520 1597l198 301h138l-217 -301h-119z" />
<glyph unicode="&#xc2;" horiz-adv-x="1232" d="M31 0l536 1458h99l536 -1458h-119l-127 354h-680l-126 -354h-119zM309 1597l252 301h110l252 -301h-117l-190 224l-190 -224h-117zM311 453h611l-306 858z" />
<glyph unicode="&#xc3;" horiz-adv-x="1232" d="M31 0l536 1458h99l536 -1458h-119l-127 354h-680l-126 -354h-119zM301 1712q98 98 182 98q61 0 141 -49q70 -43 115 -43q53 0 121 68l61 -60q-98 -98 -182 -98q-57 0 -141 49q-74 43 -115 43q-53 0 -121 -67zM311 453h611l-306 858z" />
<glyph unicode="&#xc4;" horiz-adv-x="1232" d="M31 0l536 1458h99l536 -1458h-119l-127 354h-680l-126 -354h-119zM311 453h611l-306 858zM327 1694q0 33 22.5 55t53.5 22q33 0 55.5 -22t22.5 -53q0 -33 -22.5 -55.5t-53.5 -22.5q-33 0 -55.5 22.5t-22.5 53.5zM751 1694q0 33 22.5 55t53.5 22q33 0 55.5 -22t22.5 -53 q0 -33 -22.5 -55.5t-53.5 -22.5q-33 0 -55.5 22.5t-22.5 53.5z" />
<glyph unicode="&#xc5;" horiz-adv-x="1232" d="M31 0l536 1458h99l536 -1458h-119l-127 354h-680l-126 -354h-119zM311 453h611l-306 858zM383 1763q0 96 68.5 165t164.5 69t164.5 -69t68.5 -165t-68.5 -165.5t-164.5 -69.5t-164.5 69.5t-68.5 165.5zM466 1763q0 -61 44.5 -105t105.5 -44t105.5 44t44.5 105 t-44.5 104.5t-105.5 43.5t-105.5 -43t-44.5 -105z" />
<glyph unicode="&#xc6;" horiz-adv-x="1845" d="M20 0l773 1458h938v-98h-775v-582h660v-98h-660v-582h775v-98h-883v354h-522l-185 -354h-121zM373 453h475v907z" />
<glyph unicode="&#xc7;" horiz-adv-x="1318" d="M168 729q0 276 18 371q25 129 117 221q150 150 365 149q219 0 411 -182l-73 -74q-84 82 -150 117q-82 41 -188 41q-166 0 -277 -112q-74 -76 -96 -187q-16 -92 -16 -344t16 -344q23 -111 96 -186q111 -113 277 -113q106 0 188 43q66 33 150 115l73 -74 q-193 -182 -411 -182q-215 0 -365 149q-92 92 -117 221q-18 94 -18 371zM490 -451l147 308h113l-131 -308h-129z" />
<glyph unicode="&#xc8;" horiz-adv-x="1224" d="M225 0v1458h885v-98h-774v-576h659v-98h-659v-588h774v-98h-885zM403 1898h138l198 -301h-119z" />
<glyph unicode="&#xc9;" horiz-adv-x="1224" d="M225 0v1458h885v-98h-774v-576h659v-98h-659v-588h774v-98h-885zM547 1597l198 301h138l-217 -301h-119z" />
<glyph unicode="&#xca;" horiz-adv-x="1224" d="M225 0v1458h885v-98h-774v-576h659v-98h-659v-588h774v-98h-885zM336 1597l252 301h110l252 -301h-117l-190 224l-190 -224h-117z" />
<glyph unicode="&#xcb;" horiz-adv-x="1224" d="M225 0v1458h885v-98h-774v-576h659v-98h-659v-588h774v-98h-885zM354 1694q0 33 22.5 55t53.5 22q33 0 55.5 -22t22.5 -53q0 -33 -22.5 -55.5t-53.5 -22.5q-33 0 -55.5 22.5t-22.5 53.5zM778 1694q0 33 22.5 55t53.5 22q33 0 55.5 -22t22.5 -53q0 -33 -22.5 -55.5 t-53.5 -22.5q-33 0 -55.5 22.5t-22.5 53.5z" />
<glyph unicode="&#xcc;" horiz-adv-x="561" d="M59 1898h138l198 -301h-119zM225 0v1458h111v-1458h-111z" />
<glyph unicode="&#xcd;" horiz-adv-x="561" d="M176 1597l198 301h138l-217 -301h-119zM225 0v1458h111v-1458h-111z" />
<glyph unicode="&#xce;" horiz-adv-x="561" d="M-31 1597l252 301h110l252 -301h-117l-190 224l-190 -224h-117zM225 0v1458h111v-1458h-111z" />
<glyph unicode="&#xcf;" horiz-adv-x="561" d="M-6 1694q0 33 22.5 55t53.5 22q33 0 55.5 -22t22.5 -53q0 -33 -22.5 -55.5t-53.5 -22.5q-33 0 -55.5 22.5t-22.5 53.5zM225 0v1458h111v-1458h-111zM418 1694q0 33 22.5 55t53.5 22q33 0 55.5 -22t22.5 -53q0 -33 -22.5 -55.5t-53.5 -22.5q-33 0 -55.5 22.5t-22.5 53.5z " />
<glyph unicode="&#xd0;" horiz-adv-x="1411" d="M82 692v86h166v680h491q289 0 426 -235q59 -100 74 -240q4 -51 4 -254q0 -211 -4 -256q-14 -147 -74 -242q-147 -231 -440 -231h-477v692h-166zM358 96h353q240 0 352 166q49 72 59 158q11 68 11 299q0 229 -11 305q-14 100 -71 176q-119 162 -340 162h-353v-584h365v-86 h-365v-596z" />
<glyph unicode="&#xd1;" horiz-adv-x="1513" d="M225 0v1458h111l842 -1263v1263h110v-1458h-110l-842 1268v-1268h-111zM443 1712q98 98 182 98q61 0 141 -49q70 -43 115 -43q53 0 121 68l61 -60q-98 -98 -182 -98q-57 0 -141 49q-74 43 -115 43q-53 0 -121 -67z" />
<glyph unicode="&#xd2;" horiz-adv-x="1335" d="M168 729q0 276 18 371q25 129 117 221q150 150 365 149q215 0 364 -149q92 -92 117 -221q18 -95 18 -371t-18 -371q-25 -129 -117 -221q-150 -150 -364 -149q-215 0 -365 149q-92 92 -117 221q-18 94 -18 371zM279 729q0 -252 16 -344q23 -113 96 -186q113 -113 277 -113 t276 113q74 74 96 186q17 92 17 344t-17 344q-23 113 -96 187q-113 113 -276 112q-164 0 -277 -112q-74 -74 -96 -187q-16 -92 -16 -344zM428 1898h138l198 -301h-119z" />
<glyph unicode="&#xd3;" horiz-adv-x="1335" d="M168 729q0 276 18 371q25 129 117 221q150 150 365 149q215 0 364 -149q92 -92 117 -221q18 -95 18 -371t-18 -371q-25 -129 -117 -221q-150 -150 -364 -149q-215 0 -365 149q-92 92 -117 221q-18 94 -18 371zM279 729q0 -252 16 -344q23 -113 96 -186q113 -113 277 -113 t276 113q74 74 96 186q17 92 17 344t-17 344q-23 113 -96 187q-113 113 -276 112q-164 0 -277 -112q-74 -74 -96 -187q-16 -92 -16 -344zM572 1597l198 301h138l-217 -301h-119z" />
<glyph unicode="&#xd4;" horiz-adv-x="1335" d="M168 729q0 276 18 371q25 129 117 221q150 150 365 149q215 0 364 -149q92 -92 117 -221q18 -95 18 -371t-18 -371q-25 -129 -117 -221q-150 -150 -364 -149q-215 0 -365 149q-92 92 -117 221q-18 94 -18 371zM279 729q0 -252 16 -344q23 -113 96 -186q113 -113 277 -113 t276 113q74 74 96 186q17 92 17 344t-17 344q-23 113 -96 187q-113 113 -276 112q-164 0 -277 -112q-74 -74 -96 -187q-16 -92 -16 -344zM361 1597l252 301h110l252 -301h-117l-190 224l-190 -224h-117z" />
<glyph unicode="&#xd5;" horiz-adv-x="1335" d="M168 729q0 276 18 371q25 129 117 221q150 150 365 149q215 0 364 -149q92 -92 117 -221q18 -95 18 -371t-18 -371q-25 -129 -117 -221q-150 -150 -364 -149q-215 0 -365 149q-92 92 -117 221q-18 94 -18 371zM279 729q0 -252 16 -344q23 -113 96 -186q113 -113 277 -113 t276 113q74 74 96 186q17 92 17 344t-17 344q-23 113 -96 187q-113 113 -276 112q-164 0 -277 -112q-74 -74 -96 -187q-16 -92 -16 -344zM353 1712q98 98 182 98q61 0 141 -49q70 -43 115 -43q53 0 121 68l61 -60q-98 -98 -182 -98q-57 0 -141 49q-74 43 -115 43 q-53 0 -121 -67z" />
<glyph unicode="&#xd6;" horiz-adv-x="1335" d="M168 729q0 276 18 371q25 129 117 221q150 150 365 149q215 0 364 -149q92 -92 117 -221q18 -95 18 -371t-18 -371q-25 -129 -117 -221q-150 -150 -364 -149q-215 0 -365 149q-92 92 -117 221q-18 94 -18 371zM279 729q0 -252 16 -344q23 -113 96 -186q113 -113 277 -113 t276 113q74 74 96 186q17 92 17 344t-17 344q-23 113 -96 187q-113 113 -276 112q-164 0 -277 -112q-74 -74 -96 -187q-16 -92 -16 -344zM379 1694q0 33 22.5 55t53.5 22q33 0 55.5 -22t22.5 -53q0 -33 -22.5 -55.5t-53.5 -22.5q-33 0 -55.5 22.5t-22.5 53.5zM803 1694 q0 33 22.5 55t53.5 22q33 0 55.5 -22t22.5 -53q0 -33 -22.5 -55.5t-53.5 -22.5q-33 0 -55.5 22.5t-22.5 53.5z" />
<glyph unicode="&#xd7;" d="M145 223l318 318l-318 317l64 64l317 -318l318 318l63 -64l-317 -317l317 -318l-63 -63l-318 317l-317 -317z" />
<glyph unicode="&#xd8;" horiz-adv-x="1335" d="M168 729q0 276 18 371q25 129 117 221q150 150 365 149q145 0 266 -71l72 149h108l-100 -209l18 -18q92 -92 117 -223q18 -93 18 -369t-18 -371q-25 -129 -117 -221q-150 -150 -364 -149q-145 0 -267 71l-71 -149h-109l101 209l-19 18q-92 92 -117 223q-18 92 -18 369z M279 729q0 -238 14 -326q16 -111 78 -182l518 1084q-94 68 -221 67q-164 0 -277 -112q-74 -74 -96 -187q-16 -92 -16 -344zM446 154q96 -68 222 -68q164 0 276 113q74 74 96 186q17 92 17 344q0 238 -15 326q-16 111 -77 182z" />
<glyph unicode="&#xd9;" horiz-adv-x="1406" d="M205 473v985h110v-971q0 -180 106.5 -290.5t283.5 -110.5q176 0 282.5 110.5t106.5 290.5v971h110v-985q0 -213 -140 -349t-359 -136t-359.5 136t-140.5 349zM465 1898h138l198 -301h-119z" />
<glyph unicode="&#xda;" horiz-adv-x="1406" d="M205 473v985h110v-971q0 -180 106.5 -290.5t283.5 -110.5q176 0 282.5 110.5t106.5 290.5v971h110v-985q0 -213 -140 -349t-359 -136t-359.5 136t-140.5 349zM609 1597l198 301h138l-217 -301h-119z" />
<glyph unicode="&#xdb;" horiz-adv-x="1406" d="M205 473v985h110v-971q0 -180 106.5 -290.5t283.5 -110.5q176 0 282.5 110.5t106.5 290.5v971h110v-985q0 -213 -140 -349t-359 -136t-359.5 136t-140.5 349zM398 1597l252 301h110l252 -301h-117l-190 224l-190 -224h-117z" />
<glyph unicode="&#xdc;" horiz-adv-x="1406" d="M205 473v985h110v-971q0 -180 106.5 -290.5t283.5 -110.5q176 0 282.5 110.5t106.5 290.5v971h110v-985q0 -213 -140 -349t-359 -136t-359.5 136t-140.5 349zM416 1694q0 33 22.5 55t53.5 22q33 0 55.5 -22t22.5 -53q0 -33 -22.5 -55.5t-53.5 -22.5q-33 0 -55.5 22.5 t-22.5 53.5zM840 1694q0 33 22.5 55t53.5 22q33 0 55.5 -22t22.5 -53q0 -33 -22.5 -55.5t-53.5 -22.5q-33 0 -55.5 22.5t-22.5 53.5z" />
<glyph unicode="&#xdd;" horiz-adv-x="1011" d="M20 1458h119l371 -737l362 737h119l-430 -854v-604h-110v604zM410 1597l198 301h138l-217 -301h-119z" />
<glyph unicode="&#xde;" horiz-adv-x="1323" d="M225 0v1458h111v-303h424q195 0 317.5 -112.5t122.5 -307.5t-123 -307.5t-317 -112.5h-424v-315h-111zM336 414h412q156 0 249 80.5t93 240.5t-97 244q-90 78 -245 78h-412v-643z" />
<glyph unicode="&#xdf;" horiz-adv-x="1126" d="M199 0v1075q0 184 104.5 291t288.5 107q164 0 264 -80q111 -88 111 -252t-129 -250q78 -41 104.5 -96.5t26.5 -157.5v-363q0 -133 -79 -203.5t-196 -70.5h-110v92h90q76 0 133 45t57 150v366q0 94 -48 140.5t-132 46.5h-100v92h80q90 0 145 57.5t55 151.5 q0 106 -70.5 172.5t-213.5 66.5q-276 0 -277 -305v-1075h-104z" />
<glyph unicode="&#xe0;" horiz-adv-x="1073" d="M115 270q0 135 91 210t253 75h319v111q0 242 -278 241q-186 0 -273 -125l-75 66q109 152 348 151q383 0 383 -323v-676h-105v98q-111 -111 -301 -110q-205 0 -291 90q-72 74 -71 192zM219 272q0 -193 258 -192q168 0 246 76q55 53 55 188v127h-307q-252 0 -252 -199z M270 1509h138l198 -301h-119z" />
<glyph unicode="&#xe1;" horiz-adv-x="1073" d="M115 270q0 135 91 210t253 75h319v111q0 242 -278 241q-186 0 -273 -125l-75 66q109 152 348 151q383 0 383 -323v-676h-105v98q-111 -111 -301 -110q-205 0 -291 90q-72 74 -71 192zM219 272q0 -193 258 -192q168 0 246 76q55 53 55 188v127h-307q-252 0 -252 -199z M414 1208l198 301h138l-217 -301h-119z" />
<glyph unicode="&#xe2;" horiz-adv-x="1073" d="M115 270q0 135 91 210t253 75h319v111q0 242 -278 241q-186 0 -273 -125l-75 66q109 152 348 151q383 0 383 -323v-676h-105v98q-111 -111 -301 -110q-205 0 -291 90q-72 74 -71 192zM203 1208l252 301h110l252 -301h-117l-190 224l-190 -224h-117zM219 272 q0 -193 258 -192q168 0 246 76q55 53 55 188v127h-307q-252 0 -252 -199z" />
<glyph unicode="&#xe3;" horiz-adv-x="1073" d="M115 270q0 135 91 210t253 75h319v111q0 242 -278 241q-186 0 -273 -125l-75 66q109 152 348 151q383 0 383 -323v-676h-105v98q-111 -111 -301 -110q-205 0 -291 90q-72 74 -71 192zM195 1323q98 98 182 98q61 0 141 -49q70 -43 115 -43q53 0 121 68l61 -60 q-98 -98 -182 -98q-57 0 -141 49q-74 43 -115 43q-53 0 -121 -67zM219 272q0 -193 258 -192q168 0 246 76q55 53 55 188v127h-307q-252 0 -252 -199z" />
<glyph unicode="&#xe4;" horiz-adv-x="1073" d="M115 270q0 135 91 210t253 75h319v111q0 242 -278 241q-186 0 -273 -125l-75 66q109 152 348 151q383 0 383 -323v-676h-105v98q-111 -111 -301 -110q-205 0 -291 90q-72 74 -71 192zM219 272q0 -193 258 -192q168 0 246 76q55 53 55 188v127h-307q-252 0 -252 -199z M221 1305q0 33 22.5 55t53.5 22q33 0 55.5 -22t22.5 -53q0 -33 -22.5 -55.5t-53.5 -22.5q-33 0 -55.5 22.5t-22.5 53.5zM645 1305q0 33 22.5 55t53.5 22q33 0 55.5 -22t22.5 -53q0 -33 -22.5 -55.5t-53.5 -22.5q-33 0 -55.5 22.5t-22.5 53.5z" />
<glyph unicode="&#xe5;" horiz-adv-x="1073" d="M115 270q0 135 91 210t253 75h319v111q0 242 -278 241q-186 0 -273 -125l-75 66q109 152 348 151q383 0 383 -323v-676h-105v98q-111 -111 -301 -110q-205 0 -291 90q-72 74 -71 192zM219 272q0 -193 258 -192q168 0 246 76q55 53 55 188v127h-307q-252 0 -252 -199z M277 1386q0 96 68.5 165t164.5 69t164.5 -69t68.5 -165t-68.5 -165.5t-164.5 -69.5t-164.5 69.5t-68.5 165.5zM360 1386q0 -61 44.5 -105t105.5 -44t105.5 44t44.5 105t-44.5 104.5t-105.5 43.5t-105.5 -43t-44.5 -105z" />
<glyph unicode="&#xe6;" horiz-adv-x="1708" d="M115 270q0 135 91 210t253 75h319v111q0 242 -278 241q-186 0 -273 -125l-75 66q109 152 348 151q279 0 354 -174q104 174 320 174q184 0 289.5 -128t105.5 -353v-47h-686q0 -389 321 -389q154 0 273 119l77 -62q-152 -152 -358 -151q-250 0 -352 184 q-61 -100 -145.5 -142t-221.5 -42q-205 0 -291 90q-72 74 -71 192zM219 272q0 -193 258 -192q168 0 246 76q55 53 55 188v127h-307q-252 0 -252 -199zM883 555h581q-4 115 -34.5 188.5t-100 118.5t-155.5 45t-156 -45t-100.5 -118.5t-34.5 -188.5z" />
<glyph unicode="&#xe7;" horiz-adv-x="1019" d="M141 494q0 236 117 370.5t317 134.5q102 0 175 -32.5t151 -118.5l-72 -66q-111 125 -254 125q-172 0 -262 -131q-68 -98 -67 -282q0 -184 67 -283q90 -131 262 -131q143 0 254 125l72 -66q-78 -86 -150.5 -118.5t-175.5 -32.5q-201 0 -317.5 135t-116.5 371zM371 -451 l147 308h113l-131 -308h-129z" />
<glyph unicode="&#xe8;" horiz-adv-x="1071" d="M141 494q0 238 104.5 371.5t291.5 133.5q184 0 289.5 -128t105.5 -353v-47h-686q0 -389 321 -389q154 0 273 119l78 -62q-152 -152 -357 -151q-420 0 -420 506zM246 555h581q-4 115 -34.5 188.5t-100 118.5t-155.5 45t-156 -45t-100.5 -118.5t-34.5 -188.5zM301 1509h138 l198 -301h-119z" />
<glyph unicode="&#xe9;" horiz-adv-x="1071" d="M141 494q0 238 104.5 371.5t291.5 133.5q184 0 289.5 -128t105.5 -353v-47h-686q0 -389 321 -389q154 0 273 119l78 -62q-152 -152 -357 -151q-420 0 -420 506zM246 555h581q-4 115 -34.5 188.5t-100 118.5t-155.5 45t-156 -45t-100.5 -118.5t-34.5 -188.5zM445 1208 l198 301h138l-217 -301h-119z" />
<glyph unicode="&#xea;" horiz-adv-x="1071" d="M141 494q0 238 104.5 371.5t291.5 133.5q184 0 289.5 -128t105.5 -353v-47h-686q0 -389 321 -389q154 0 273 119l78 -62q-152 -152 -357 -151q-420 0 -420 506zM234 1208l252 301h110l252 -301h-117l-190 224l-190 -224h-117zM246 555h581q-4 115 -34.5 188.5t-100 118.5 t-155.5 45t-156 -45t-100.5 -118.5t-34.5 -188.5z" />
<glyph unicode="&#xeb;" horiz-adv-x="1071" d="M141 494q0 238 104.5 371.5t291.5 133.5q184 0 289.5 -128t105.5 -353v-47h-686q0 -389 321 -389q154 0 273 119l78 -62q-152 -152 -357 -151q-420 0 -420 506zM246 555h581q-4 115 -34.5 188.5t-100 118.5t-155.5 45t-156 -45t-100.5 -118.5t-34.5 -188.5zM252 1305 q0 33 22.5 55t53.5 22q33 0 55.5 -22t22.5 -53q0 -33 -22.5 -55.5t-53.5 -22.5q-33 0 -55.5 22.5t-22.5 53.5zM676 1305q0 33 22.5 55t53.5 22q33 0 55.5 -22t22.5 -53q0 -33 -22.5 -55.5t-53.5 -22.5q-33 0 -55.5 22.5t-22.5 53.5z" />
<glyph unicode="&#xec;" horiz-adv-x="501" d="M18 1509h138l198 -301h-119zM199 0v987h104v-987h-104z" />
<glyph unicode="&#xed;" horiz-adv-x="501" d="M146 1208l198 301h138l-217 -301h-119zM199 0v987h104v-987h-104z" />
<glyph unicode="&#xee;" horiz-adv-x="501" d="M-57 1208l252 301h110l252 -301h-117l-190 224l-190 -224h-117zM199 0v987h104v-987h-104z" />
<glyph unicode="&#xef;" horiz-adv-x="501" d="M-37 1305q0 33 22.5 55t53.5 22q33 0 55.5 -22t22.5 -53q0 -33 -22.5 -55.5t-53.5 -22.5q-33 0 -55.5 22.5t-22.5 53.5zM199 0v987h104v-987h-104zM387 1305q0 33 22.5 55t53.5 22q33 0 55.5 -22t22.5 -53q0 -33 -22.5 -55.5t-53.5 -22.5q-33 0 -55.5 22.5t-22.5 53.5z " />
<glyph unicode="&#xf0;" horiz-adv-x="1077" d="M141 494q0 274 123 397q109 109 275 108q96 0 153 -34l-137 231h-240v78h195l-109 184h109l106 -184h162v-78h-116l147 -252q76 -129 101.5 -219t25.5 -231q0 -274 -123 -398q-109 -109 -274 -108q-166 0 -275 108q-123 123 -123 398zM246 494q0 -242 86 -328t207 -86 t206.5 86t85.5 328t-86 327.5t-206 85.5q-121 0 -207 -86t-86 -327z" />
<glyph unicode="&#xf1;" horiz-adv-x="1144" d="M199 0v987h104v-117q111 129 291 129q170 0 267 -99t97 -269v-631h-104v612q0 295 -272 295q-131 0 -205 -77.5t-74 -217.5v-612h-104zM267 1323q98 98 182 98q61 0 141 -49q70 -43 115 -43q53 0 121 68l61 -60q-98 -98 -182 -98q-57 0 -141 49q-74 43 -115 43 q-53 0 -121 -67z" />
<glyph unicode="&#xf2;" horiz-adv-x="1077" d="M272 494q0 274 123 397q109 109 275 108q166 0 274 -108q123 -123 123 -397t-123 -398q-109 -109 -274 -108q-166 0 -275 108q-123 123 -123 398zM272 1509h138l198 -301h-119zM377 494q0 -242 86 -328t207 -86t206.5 86t85.5 328t-86 327.5t-206 85.5q-121 0 -207 -86 t-86 -327z" />
<glyph unicode="&#xf3;" horiz-adv-x="1077" d="M141 494q0 274 123 397q109 109 275 108q166 0 274 -108q123 -123 123 -397t-123 -398q-109 -109 -274 -108q-166 0 -275 108q-123 123 -123 398zM246 494q0 -242 86 -328t207 -86t206.5 86t85.5 328t-86 327.5t-206 85.5q-121 0 -207 -86t-86 -327zM443 1208l198 301 h138l-217 -301h-119z" />
<glyph unicode="&#xf4;" horiz-adv-x="1077" d="M141 494q0 274 123 397q109 109 275 108q166 0 274 -108q123 -123 123 -397t-123 -398q-109 -109 -274 -108q-166 0 -275 108q-123 123 -123 398zM232 1208l252 301h110l252 -301h-117l-190 224l-190 -224h-117zM246 494q0 -242 86 -328t207 -86t206.5 86t85.5 328 t-86 327.5t-206 85.5q-121 0 -207 -86t-86 -327z" />
<glyph unicode="&#xf5;" horiz-adv-x="1077" d="M141 494q0 274 123 397q109 109 275 108q166 0 274 -108q123 -123 123 -397t-123 -398q-109 -109 -274 -108q-166 0 -275 108q-123 123 -123 398zM224 1323q98 98 182 98q61 0 141 -49q70 -43 115 -43q53 0 121 68l61 -60q-98 -98 -182 -98q-57 0 -141 49q-74 43 -115 43 q-53 0 -121 -67zM246 494q0 -242 86 -328t207 -86t206.5 86t85.5 328t-86 327.5t-206 85.5q-121 0 -207 -86t-86 -327z" />
<glyph unicode="&#xf6;" horiz-adv-x="1077" d="M141 494q0 274 123 397q109 109 275 108q166 0 274 -108q123 -123 123 -397t-123 -398q-109 -109 -274 -108q-166 0 -275 108q-123 123 -123 398zM246 494q0 -242 86 -328t207 -86t206.5 86t85.5 328t-86 327.5t-206 85.5q-121 0 -207 -86t-86 -327zM250 1305 q0 33 22.5 55t53.5 22q33 0 55.5 -22t22.5 -53q0 -33 -22.5 -55.5t-53.5 -22.5q-33 0 -55.5 22.5t-22.5 53.5zM674 1305q0 33 22.5 55t53.5 22q33 0 55.5 -22t22.5 -53q0 -33 -22.5 -55.5t-53.5 -22.5q-33 0 -55.5 22.5t-22.5 53.5z" />
<glyph unicode="&#xf7;" d="M109 492v96h835v-96h-835zM432 193q0 39 27.5 66.5t66.5 27.5t67 -27.5t28 -66.5t-28 -67t-67 -28t-66.5 28t-27.5 67zM432 887q0 39 27.5 66.5t66.5 27.5t67 -27.5t28 -66.5t-28 -66.5t-67 -27.5t-66.5 27.5t-27.5 66.5z" />
<glyph unicode="&#xf8;" horiz-adv-x="1077" d="M141 494q0 274 123 397q109 109 275 108q123 0 215 -61l82 139h98l-115 -192q117 -125 117 -391q0 -274 -123 -398q-109 -109 -274 -108q-121 0 -215 59l-82 -137h-99l115 192q-117 125 -117 392zM246 494q0 -213 65 -304l394 666q-74 51 -166 51q-121 0 -207 -86 t-86 -327zM373 131q74 -51 166 -51q121 0 206.5 86t85.5 328q0 213 -65 303z" />
<glyph unicode="&#xf9;" horiz-adv-x="1144" d="M186 356v631h105v-612q0 -295 272 -295q131 0 205 78t74 217v612h104v-987h-104v117q-111 -129 -291 -129q-170 0 -267.5 99t-97.5 269zM325 1509h138l198 -301h-119z" />
<glyph unicode="&#xfa;" horiz-adv-x="1144" d="M186 356v631h105v-612q0 -295 272 -295q131 0 205 78t74 217v612h104v-987h-104v117q-111 -129 -291 -129q-170 0 -267.5 99t-97.5 269zM469 1208l198 301h138l-217 -301h-119z" />
<glyph unicode="&#xfb;" horiz-adv-x="1144" d="M186 356v631h105v-612q0 -295 272 -295q131 0 205 78t74 217v612h104v-987h-104v117q-111 -129 -291 -129q-170 0 -267.5 99t-97.5 269zM258 1208l252 301h110l252 -301h-117l-190 224l-190 -224h-117z" />
<glyph unicode="&#xfc;" horiz-adv-x="1144" d="M186 356v631h105v-612q0 -295 272 -295q131 0 205 78t74 217v612h104v-987h-104v117q-111 -129 -291 -129q-170 0 -267.5 99t-97.5 269zM276 1305q0 33 22.5 55t53.5 22q33 0 55.5 -22t22.5 -53q0 -33 -22.5 -55.5t-53.5 -22.5q-33 0 -55.5 22.5t-22.5 53.5zM700 1305 q0 33 22.5 55t53.5 22q33 0 55.5 -22t22.5 -53q0 -33 -22.5 -55.5t-53.5 -22.5q-33 0 -55.5 22.5t-22.5 53.5z" />
<glyph unicode="&#xfd;" horiz-adv-x="880" d="M29 987h114l297 -864l297 864h115l-459 -1255q-29 -80 -67 -115q-70 -63 -187 -63h-49v92h39q82 0 117 28.5t63 106.5l80 219zM344 1208l198 301h138l-217 -301h-119z" />
<glyph unicode="&#xfe;" horiz-adv-x="1105" d="M199 -471v1929h104v-598q104 139 293 139q156 0 242 -86q127 -126 127 -419t-127 -420q-86 -86 -242 -86q-188 0 -293 139v-598h-104zM303 494q0 -188 49 -283q66 -131 230 -131t229 131q49 95 49 283t-49 284q-66 129 -229 129q-164 0 -230 -129q-49 -96 -49 -284z" />
<glyph unicode="&#xff;" horiz-adv-x="880" d="M29 987h114l297 -864l297 864h115l-459 -1255q-29 -80 -67 -115q-70 -63 -187 -63h-49v92h39q82 0 117 28.5t63 106.5l80 219zM151 1305q0 33 22.5 55t53.5 22q33 0 55.5 -22t22.5 -53q0 -33 -22.5 -55.5t-53.5 -22.5q-33 0 -55.5 22.5t-22.5 53.5zM575 1305 q0 33 22.5 55t53.5 22q33 0 55.5 -22t22.5 -53q0 -33 -22.5 -55.5t-53.5 -22.5q-33 0 -55.5 22.5t-22.5 53.5z" />
<glyph unicode="&#x152;" horiz-adv-x="2041" d="M168 729q0 276 18 371q25 129 117 221q150 150 365 149q240 0 389 -186v174h864v-96h-756q0 -98 2 -293v-291h641v-86h-641v-297q-2 -199 -2 -299h762v-96h-870v174q-150 -186 -389 -186q-215 0 -365 149q-92 92 -117 221q-18 94 -18 371zM279 729q0 -252 16 -344 q23 -113 96 -186q113 -113 277 -113t276 113q74 74 96 186q17 92 17 344t-17 344q-23 113 -96 187q-113 113 -276 112q-164 0 -277 -112q-74 -74 -96 -187q-16 -92 -16 -344z" />
<glyph unicode="&#x153;" horiz-adv-x="1761" d="M141 494q0 274 123 397q109 109 275 108q248 0 348 -215q100 215 340 215q184 0 289.5 -128t105.5 -353v-47h-686q0 -389 321 -389q154 0 273 119l78 -62q-152 -152 -357 -151q-264 0 -364 215q-98 -215 -348 -215q-166 0 -275 108q-123 123 -123 398zM246 494 q0 -242 86 -328t207 -86t206.5 86t85.5 328t-86 327.5t-206 85.5q-121 0 -207 -86t-86 -327zM936 555h582q-4 115 -35 188.5t-100.5 118.5t-155.5 45t-156 -45t-100.5 -118.5t-34.5 -188.5z" />
<glyph unicode="&#x178;" horiz-adv-x="1011" d="M20 1458h119l371 -737l362 737h119l-430 -854v-604h-110v604zM217 1694q0 33 22.5 55t53.5 22q33 0 55.5 -22t22.5 -53q0 -33 -22.5 -55.5t-53.5 -22.5q-33 0 -55.5 22.5t-22.5 53.5zM641 1694q0 33 22.5 55t53.5 22q33 0 55.5 -22t22.5 -53q0 -33 -22.5 -55.5 t-53.5 -22.5q-33 0 -55.5 22.5t-22.5 53.5z" />
<glyph unicode="&#x2c6;" horiz-adv-x="1024" d="M205 1208l252 301h110l252 -301h-117l-190 224l-190 -224h-117z" />
<glyph unicode="&#x2dc;" horiz-adv-x="1024" d="M197 1323q98 98 182 98q61 0 141 -49q70 -43 115 -43q53 0 121 68l61 -60q-98 -98 -182 -98q-57 0 -141 49q-74 43 -115 43q-53 0 -121 -67z" />
<glyph unicode="&#x2000;" horiz-adv-x="998" />
<glyph unicode="&#x2001;" horiz-adv-x="1997" />
<glyph unicode="&#x2002;" horiz-adv-x="998" />
<glyph unicode="&#x2003;" horiz-adv-x="1997" />
<glyph unicode="&#x2004;" horiz-adv-x="665" />
<glyph unicode="&#x2005;" horiz-adv-x="499" />
<glyph unicode="&#x2006;" horiz-adv-x="332" />
<glyph unicode="&#x2007;" horiz-adv-x="332" />
<glyph unicode="&#x2008;" horiz-adv-x="249" />
<glyph unicode="&#x2009;" horiz-adv-x="399" />
<glyph unicode="&#x200a;" horiz-adv-x="110" />
<glyph unicode="&#x2010;" horiz-adv-x="872" d="M168 492v96h537v-96h-537z" />
<glyph unicode="&#x2011;" horiz-adv-x="872" d="M168 492v96h537v-96h-537z" />
<glyph unicode="&#x2012;" horiz-adv-x="872" d="M168 492v96h537v-96h-537z" />
<glyph unicode="&#x2013;" d="M109 492v96h835v-96h-835z" />
<glyph unicode="&#x2014;" horiz-adv-x="1787" d="M168 492v96h1452v-96h-1452z" />
<glyph unicode="&#x2018;" horiz-adv-x="532" d="M195 1315v143l143 144v-287h-143z" />
<glyph unicode="&#x2019;" horiz-adv-x="532" d="M195 1171v287h143v-143z" />
<glyph unicode="&#x201a;" horiz-adv-x="532" d="M195 -143v286h143v-143z" />
<glyph unicode="&#x201c;" horiz-adv-x="851" d="M195 1315v143l143 144v-287h-143zM514 1315v143l143 144v-287h-143z" />
<glyph unicode="&#x201d;" horiz-adv-x="851" d="M195 1171v287h143v-143zM514 1171v287h143v-143z" />
<glyph unicode="&#x201e;" horiz-adv-x="851" d="M195 -143v286h143v-143zM514 -143v286h143v-143z" />
<glyph unicode="&#x2022;" horiz-adv-x="1118" d="M225 684q0 139 98.5 236.5t235.5 97.5q139 0 236.5 -97.5t97.5 -236.5q0 -137 -97.5 -235.5t-236.5 -98.5q-137 0 -235.5 98.5t-98.5 235.5z" />
<glyph unicode="&#x2026;" horiz-adv-x="1482" d="M176 88q0 39 27.5 66.5t66.5 27.5t67 -27.5t28 -66.5t-28 -66.5t-67 -27.5t-66.5 27.5t-27.5 66.5zM647 88q0 39 27.5 66.5t66.5 27.5t67 -27.5t28 -66.5t-28 -66.5t-67 -27.5t-66.5 27.5t-27.5 66.5zM1118 88q0 39 28 66.5t66 27.5q39 0 67 -27.5t28 -66.5t-28 -66.5 t-67 -27.5t-66.5 27.5t-27.5 66.5z" />
<glyph unicode="&#x202f;" horiz-adv-x="399" />
<glyph unicode="&#x2039;" horiz-adv-x="655" d="M86 543l401 401v-135l-266 -266l266 -267v-135z" />
<glyph unicode="&#x203a;" horiz-adv-x="655" d="M168 141v135l266 267l-266 266v135l401 -401z" />
<glyph unicode="&#x205f;" horiz-adv-x="499" />
<glyph unicode="&#x2122;" horiz-adv-x="1656" d="M66 1374v84h589v-84h-249v-790h-91v790h-249zM817 584v874h90l273 -553l272 553h90v-874h-90v671l-225 -446h-94l-226 446v-671h-90z" />
<glyph unicode="&#x25fc;" horiz-adv-x="983" d="M0 0v983h983v-983h-983z" />
</font>
</defs>
</svg>
